<svg xmlns="http://www.w3.org/2000/svg" version="1.1" xmlns:xlink="http://www.w3.org/1999/xlink" xmlns:svgjs="http://svgjs.dev/svgjs" width="1000" height="358" viewBox="0 0 1000 358"><g transform="matrix(1,0,0,1,2.0588771360550027,4.104999389992912)"><svg viewBox="0 0 396 142" data-background-color="#ffffff" preserveAspectRatio="xMidYMid meet" height="358" width="1000" xmlns="http://www.w3.org/2000/svg" xmlns:xlink="http://www.w3.org/1999/xlink"><g id="tight-bounds" transform="matrix(1,0,0,1,0.2400000000000091,0.04609702632254198)"><svg viewBox="0 0 395.52 141.90780594735492" height="141.90780594735492" width="395.52"><g><svg viewBox="0 0 674.86730197088 242.134248908522" height="141.90780594735492" width="395.52"><g transform="matrix(1,0,0,1,277.3697019708801,16.40482644295153)"><svg viewBox="0 0 397.4975999999999 209.32459602261895" height="209.32459602261895" width="397.4975999999999"><g><svg viewBox="0 0 397.4975999999999 209.32459602261895" height="209.32459602261895" width="397.4975999999999"><g><rect width="397.4975999999999" height="12.115582735276213" x="0" y="148.61963405666162" fill="#070606" opacity="1" stroke-width="0" stroke="transparent" fill-opacity="1" class="rect-o-0" data-fill-palette-color="primary" rx="1%" id="o-0" data-palette-color="#070606"></rect></g><g transform="matrix(1,0,0,1,0.9887999999999693,0)"><svg viewBox="0 0 395.52 134.34735072976557" height="134.34735072976557" width="395.52"><g transform="matrix(1,0,0,1,0,0)"><svg width="395.52" viewBox="1.5499999523162842 -37.5 113.03999328613281 38.400001525878906" height="134.34735072976557" data-palette-color="#070606"><path d="M20.8-9.75Q20.1-6.9 18.82-4.9 17.55-2.9 15.83-1.6 14.1-0.3 12.15 0.3 10.2 0.9 8.25 0.9L8.25 0.9Q7.1 0.9 5.9 0.53 4.7 0.15 3.75-0.6 2.8-1.35 2.18-2.5 1.55-3.65 1.55-5.2L1.55-5.2Q1.55-5.4 1.55-5.6 1.55-5.8 1.6-6L1.6-6Q1.8-8.05 2.25-10.95 2.7-13.85 3.2-17 3.7-20.15 4.3-23.33 4.9-26.5 5.38-29.1 5.85-31.7 6.2-33.43 6.55-35.15 6.65-35.55L6.65-35.55Q7.7-35.65 9.15-35.8 10.6-35.95 11.85-36.05L11.85-36.05Q13.4-36.2 14.9-36.35L14.9-36.35Q13.6-30.3 12.6-25.4L12.6-25.4Q12.15-23.3 11.73-21.2 11.3-19.1 10.93-17.35 10.55-15.6 10.28-14.33 10-13.05 9.83-12.25 9.65-11.45 9.43-10.23 9.2-9 9.2-8L9.2-8Q9.2-7.2 9.6-6.68 10-6.15 10.6-6.15L10.6-6.15Q11.45-6.15 12-6.83 12.55-7.5 12.93-8.45 13.3-9.4 13.48-10.38 13.65-11.35 13.8-11.9L13.8-11.9Q14.1-13.35 14.48-15.13 14.85-16.9 15.23-18.82 15.6-20.75 15.98-22.75 16.35-24.75 16.7-26.65L16.7-26.65Q17.55-31.05 18.35-35.75L18.35-35.75 25.95-36.25Q25.95-36.25 25.7-34.95 25.45-33.65 25.05-31.5 24.65-29.35 24.18-26.6 23.7-23.85 23.1-20.88 22.5-17.9 21.93-15.03 21.35-12.15 20.8-9.75L20.8-9.75ZM28.55-1.45L21.25 0.25Q22.65-6.8 23.95-13.5L23.95-13.5Q24.45-16.3 25.02-19.38 25.6-22.45 26.1-25.43 26.6-28.4 27.02-31.18 27.45-33.95 27.7-36.25L27.7-36.25Q29.25-36.35 30.7-36.45L30.7-36.45Q32-36.55 33.35-36.63 34.7-36.7 35.75-36.8L35.75-36.8Q36.4-32.95 36.9-29.45L36.9-29.45Q37.15-27.95 37.42-26.33 37.7-24.7 37.95-23.2 38.2-21.7 38.45-20.33 38.7-18.95 38.95-17.9L38.95-17.9Q39.15-18.95 39.4-20.33 39.65-21.7 39.95-23.23 40.25-24.75 40.57-26.35 40.9-27.95 41.2-29.45L41.2-29.45Q41.95-32.95 42.75-36.75L42.75-36.75 48.85-37.5Q47.15-30 45.85-23.3L45.85-23.3Q45.25-20.4 44.67-17.45 44.1-14.5 43.6-11.75 43.1-9 42.75-6.68 42.4-4.35 42.2-2.75L42.2-2.75Q42.05-2.75 41.02-2.53 40-2.3 38.67-2 37.35-1.7 36.02-1.38 34.7-1.05 34.05-0.85L34.05-0.85Q33.7-4.9 33.3-8.55L33.3-8.55Q33.15-10.1 32.95-11.75 32.75-13.4 32.57-14.9 32.4-16.4 32.22-17.73 32.05-19.05 31.9-19.95L31.9-19.95Q31.75-19.05 31.5-17.75 31.25-16.45 31-14.98 30.75-13.5 30.5-11.93 30.25-10.35 29.95-8.85L29.95-8.85Q29.3-5.3 28.55-1.45L28.55-1.45ZM66.2-12.55Q66.2-10.5 65.34-8.75 64.5-7 63.05-5.58 61.6-4.15 59.67-3.08 57.75-2 55.62-1.28 53.5-0.55 51.27-0.18 49.05 0.2 47 0.2L47 0.2Q45.15 0.2 43.55-0.1L43.55-0.1Q45.95-8.85 47.37-17.73 48.8-26.6 50.1-35.6L50.1-35.6Q52.7-36.15 55.5-36.58 58.3-37 61.3-37L61.3-37Q62.55-37 63.95-36.7 65.34-36.4 66.5-35.6 67.65-34.8 68.42-33.5 69.2-32.2 69.2-30.2L69.2-30.2Q69.2-28.3 68.57-26.65 67.95-25 66.97-23.65 66-22.3 64.75-21.33 63.5-20.35 62.2-19.85L62.2-19.85Q62.85-19.5 63.55-18.85 64.25-18.2 64.84-17.32 65.45-16.45 65.82-15.25 66.2-14.05 66.2-12.55L66.2-12.55ZM54.75-17.75Q54.55-16.55 54.37-15.63 54.2-14.7 54.05-13.85 53.9-13 53.72-12.08 53.55-11.15 53.35-9.9L53.35-9.9Q54.3-10 55.5-10.25 56.7-10.5 57.8-11.03 58.9-11.55 59.65-12.43 60.4-13.3 60.4-14.55L60.4-14.55Q60.4-15.45 59.92-16.05 59.45-16.65 58.72-17.05 58-17.45 57.15-17.63 56.3-17.8 55.55-17.8L55.55-17.8Q55.3-17.8 55.12-17.8 54.95-17.8 54.75-17.75L54.75-17.75ZM57-29.85Q56.9-29.3 56.77-28.55 56.65-27.8 56.5-26.98 56.35-26.15 56.17-25.35 56-24.55 55.9-23.95L55.9-23.95Q57-24.15 58.1-24.5 59.2-24.85 60.07-25.28 60.95-25.7 61.47-26.2 62-26.7 62-27.3L62-27.3Q62-28.05 61.55-28.53 61.1-29 60.37-29.3 59.65-29.6 58.87-29.73 58.1-29.85 57.5-29.85L57.5-29.85 57-29.85ZM92.99-27.05Q92.99-22.95 92.12-19.33 91.24-15.7 89.79-12.68 88.34-9.65 86.42-7.28 84.49-4.9 82.39-3.23 80.29-1.55 78.14-0.68 75.99 0.2 74.04 0.2L74.04 0.2Q72.39 0.2 71.04-0.43 69.69-1.05 68.69-2.27 67.69-3.5 67.12-5.43 66.54-7.35 66.54-10.05L66.54-10.05Q66.54-12.85 67.24-15.95 67.94-19.05 69.14-22.1 70.34-25.15 72.09-27.9 73.84-30.65 75.94-32.77 78.04-34.9 80.44-36.15 82.84-37.4 85.44-37.4L85.44-37.4Q87.69-37.4 89.17-36.48 90.64-35.55 91.47-34.08 92.29-32.6 92.64-30.75 92.99-28.9 92.99-27.05L92.99-27.05ZM73.99-11.35Q73.99-10.8 74.19-10.2 74.39-9.6 74.74-9.15 75.09-8.7 75.62-8.38 76.14-8.05 76.74-8.05L76.74-8.05Q78.99-8.05 80.74-9.6 82.49-11.15 83.64-13.4 84.79-15.65 85.42-18.2 86.04-20.75 86.04-22.85L86.04-22.85Q86.04-23.45 85.97-24.15 85.89-24.85 85.67-25.45 85.44-26.05 84.97-26.48 84.49-26.9 83.69-26.9L83.69-26.9Q82.09-26.9 80.74-26.1 79.39-25.3 78.32-23.98 77.24-22.65 76.44-20.98 75.64-19.3 75.07-17.57 74.49-15.85 74.24-14.2 73.99-12.55 73.99-11.35L73.99-11.35ZM109.84-2.3Q109.74-2.25 109.14-2.1 108.54-1.95 107.64-1.7 106.74-1.45 105.67-1.15 104.59-0.85 103.57-0.55 102.54-0.25 101.64 0.03 100.74 0.3 100.24 0.5L100.24 0.5Q100.09-1.5 99.99-3.4L99.99-3.4Q99.89-5.05 99.77-6.7 99.64-8.35 99.59-9.45L99.59-9.45Q99.14-8.35 98.42-6.7 97.69-5.05 96.99-3.45L96.99-3.45Q96.14-1.6 95.24 0.3L95.24 0.3 86.74-0.45Q89.24-4.9 91.74-9.25 94.24-13.6 96.34-18.35L96.34-18.35Q96.04-20.6 95.77-22.35 95.49-24.1 95.14-25.8 94.79-27.5 94.39-29.23 93.99-30.95 93.59-33.15L93.59-33.15 101.59-36.45Q101.84-34.1 102.17-31.25 102.49-28.4 102.74-26L102.74-26Q103.89-28.5 105.02-31 106.14-33.5 107.34-35.95L107.34-35.95 114.59-34Q113.29-31.8 112.24-29.95 111.19-28.1 110.24-26.25 109.29-24.4 108.34-22.48 107.39-20.55 106.29-18.2L106.29-18.2Q106.59-16 106.99-14.05 107.39-12.1 107.87-10.2 108.34-8.3 108.82-6.38 109.29-4.45 109.84-2.3L109.84-2.3Z" opacity="1" transform="matrix(1,0,0,1,0,0)" fill="#070606" class="undefined-text-0" data-fill-palette-color="primary" id="text-0"></path></svg></g></svg></g><g transform="matrix(1,0,0,1,0,175.0075001188339)"><svg viewBox="0 0 232.209792 34.31709590378506" height="34.31709590378506" width="232.209792"><g transform="matrix(1,0,0,1,0,0)"><svg width="232.209792" viewBox="1.25 -37.54999923706055 260.8221435546875 38.54999923706055" height="34.31709590378506" data-palette-color="#0c0c0c"><path d="M6.15-18.5L6.15-18.5Q6.15-16.9 7.45-15.95 8.75-15 11.45-13.8L11.45-13.8 14.4-12.45Q18.7-10.2 18.7-6.25L18.7-6.25Q18.7-3.05 16.3-1.03 13.9 1 10.1 1L10.1 1Q5.95 1 1.25-1.6L1.25-1.6 3.1-6Q7.8-2.8 13-2.1L13-2.1Q14.35-3.3 14.35-5 14.35-6.7 13.1-7.75 11.85-8.8 8.18-10.43 4.5-12.05 3.23-13.58 1.95-15.1 1.95-17.25L1.95-17.25Q1.95-20.4 4.63-22.4 7.3-24.4 11.45-24.4L11.45-24.4Q14.95-24.4 17.85-22.9L17.85-22.9Q18-19.25 17-16.45L17-16.45 14.3-16.45 13.95-20.3Q11.45-21.4 8.7-21.4L8.7-21.4 7.75-21.35Q6.15-20.35 6.15-18.5ZM44.3-3.75L45.05-1.55 40 0.75Q39.25 0.65 38.1-0.43 36.95-1.5 36.45-2.7L36.45-2.7 30.8 0.7 29.6 0.75Q26.6 0.75 24.77-0.95 22.95-2.65 22.95-5.2L22.95-5.2Q22.95-8.6 26.45-10.55L26.45-10.55 36.2-10.8 36.2-15.95Q36.2-18.25 35.65-19.43 35.1-20.6 33.75-21.3L33.75-21.3Q30.7-21.2 28.1-20.45L28.1-20.45 27.7-15.25 25.05-15.05Q23.75-17.4 23.6-21.05L23.6-21.05Q25.8-22.3 29.5-23.48 33.2-24.65 34.75-24.65L34.75-24.65Q36.15-24.65 37.65-23.63 39.15-22.6 39.9-21.48 40.65-20.35 40.7-17.4L40.7-17.4 40.7-4.3Q40.7-3.3 42-3.3L42-3.3Q42.75-3.3 44.3-3.75L44.3-3.75ZM28.95-2.9L28.95-2.9Q31.9-2.8 36.2-4.75L36.2-4.75 36.2-8.2 33.7-8.35Q27.65-8.35 27.65-5.2L27.65-5.2Q27.65-3.7 28.95-2.9ZM63.84-35.1L61.05-31.1Q58.5-33.55 55.65-33.55L55.65-33.55Q54.59-33.55 53.5-33.15L53.5-33.15 54.65-23.4 59.9-23.4 60.05-22 57.7-19.55 54.4-19.55 54.4-3.3Q57.55-3 58.95-2.4L58.95-2.4 58.65 0 46.8 0 46.55-1.65 49.95-2.9 49.95-19.65 46.84-19.55 46.55-22Q47.84-22.6 49.95-23.1L49.95-23.1 49.95-28.15Q49.95-32.25 52.34-34.9 54.75-37.55 58.2-37.55L58.2-37.55Q61.5-37.55 63.84-35.1L63.84-35.1ZM79.39-12.85L66.54-13.1Q66.54-8.15 68.82-5.6 71.09-3.05 74.74-3.05L74.74-3.05Q77.44-3.05 81.14-4.7L81.14-4.7 81.89-2.55 74.09 0.75Q68.59 0.75 65.22-2.63 61.84-6 61.84-11.3L61.84-11.3Q61.84-16.7 65.17-20.55 68.49-24.4 73.29-24.4L73.29-24.4Q75.89-24.4 77.97-23.25 80.04-22.1 81.17-20.1 82.29-18.1 82.24-15.65L82.24-15.65 79.39-12.85ZM70.79-21.35L70.79-21.35Q67.94-19.85 66.94-15.75L66.94-15.75 77.89-16.25Q77.39-18.65 75.42-20.1 73.44-21.55 70.79-21.35ZM122.44-3.75L123.19-1.55 118.14 0.75Q117.34 0.65 116.16-0.48 114.99-1.6 114.54-2.9L114.54-2.9 109.09 0.75Q104.14 0.8 100.89-2.8 97.64-6.4 97.64-11.65L97.64-11.65Q97.64-17.1 101.31-20.8 104.99-24.5 110.24-24.5L110.24-24.5Q112.39-24.5 114.39-23.75L114.39-23.75 114.39-33.15 110.64-32.85 110.04-35.2Q113.39-36.65 116.84-36.75L116.84-36.75 118.84-34.95 118.84-4.3Q118.84-3.3 120.14-3.3L120.14-3.3Q120.89-3.3 122.44-3.75L122.44-3.75ZM102.34-12.2L102.34-12.2Q102.34-8.4 104.21-5.88 106.09-3.35 109.14-3.35L109.14-3.35Q111.49-3.35 114.39-5.1L114.39-5.1 114.39-19Q111.54-21.2 107.99-21.2L107.99-21.2 105.89-21Q102.34-17.85 102.34-12.2ZM141.49-12.85L128.63-13.1Q128.63-8.15 130.91-5.6 133.19-3.05 136.84-3.05L136.84-3.05Q139.53-3.05 143.24-4.7L143.24-4.7 143.99-2.55 136.19 0.75Q130.69 0.75 127.31-2.63 123.94-6 123.94-11.3L123.94-11.3Q123.94-16.7 127.26-20.55 130.59-24.4 135.38-24.4L135.38-24.4Q137.99-24.4 140.06-23.25 142.13-22.1 143.26-20.1 144.38-18.1 144.34-15.65L144.34-15.65 141.49-12.85ZM132.88-21.35L132.88-21.35Q130.03-19.85 129.03-15.75L129.03-15.75 139.99-16.25Q139.49-18.65 137.51-20.1 135.53-21.55 132.88-21.35ZM155.03-35L155.03-3.2Q157.53-2.9 158.63-2.4L158.63-2.4 158.33 0 147.03 0 146.78-1.65Q147.98-2.25 150.58-3.05L150.58-3.05 150.58-33.15 146.83-32.85 146.23-35.2Q149.58-36.65 153.03-36.75L153.03-36.75 155.03-35ZM166.93-28.65L166.93-28.65Q164.48-29.7 163.08-31.65L163.08-31.65Q164.38-34.35 166.13-35.45L166.13-35.45Q168.38-34.55 169.88-32.45L169.88-32.45Q169.08-30.15 166.93-28.65ZM168.93-22.45L168.93-3.2Q171.43-2.9 172.53-2.4L172.53-2.4 172.23 0 160.93 0 160.68-1.65Q161.88-2.25 164.48-3.05L164.48-3.05 164.48-20.6 160.73-20.3 160.13-22.65Q163.48-24.1 166.93-24.2L166.93-24.2 168.93-22.45ZM198.98-23.4L199.28-21.6 196.13-20.4Q191.58-7 188.78-0.15L188.78-0.15Q187.43 0.3 185.58 0.3L185.58 0.3 182.98 0.1 175.83-20.8 173.03-20.95 173.08-23.4 183.08-23.4 183.38-21.6 180.88-20.65 184.63-8.65 185.33-3.3 186.53-3.3Q189.03-10.65 191.63-20.8L191.63-20.8 188.93-20.95 188.98-23.4 198.98-23.4ZM216.33-12.85L203.48-13.1Q203.48-8.15 205.75-5.6 208.03-3.05 211.68-3.05L211.68-3.05Q214.38-3.05 218.08-4.7L218.08-4.7 218.83-2.55 211.03 0.75Q205.53 0.75 202.15-2.63 198.78-6 198.78-11.3L198.78-11.3Q198.78-16.7 202.1-20.55 205.43-24.4 210.23-24.4L210.23-24.4Q212.83-24.4 214.9-23.25 216.98-22.1 218.1-20.1 219.23-18.1 219.18-15.65L219.18-15.65 216.33-12.85ZM207.73-21.35L207.73-21.35Q204.88-19.85 203.88-15.75L203.88-15.75 214.83-16.25Q214.33-18.65 212.35-20.1 210.38-21.55 207.73-21.35ZM240.37-23.15L240.37-23.15Q240.57-19.45 239.47-15.05L239.47-15.05 236.77-15.05 236.22-20.55Q232.17-18.3 229.37-14.6L229.37-14.6 229.37-3.3Q233.02-3.05 234.52-2.4L234.52-2.4 234.22 0 221.52 0 221.27-1.65 224.92-3 224.92-20.6 221.17-20.3 220.57-22.65Q223.92-24.1 227.37-24.2L227.37-24.2 229.37-22.45 229.37-17.9 234.62-23.5Q236.07-24.1 237.27-24.1L237.27-24.1Q238.87-24.1 240.37-23.15ZM259.22-12.85L246.37-13.1Q246.37-8.15 248.65-5.6 250.92-3.05 254.57-3.05L254.57-3.05Q257.27-3.05 260.97-4.7L260.97-4.7 261.72-2.55 253.92 0.75Q248.42 0.75 245.05-2.63 241.67-6 241.67-11.3L241.67-11.3Q241.67-16.7 245-20.55 248.32-24.4 253.12-24.4L253.12-24.4Q255.72-24.4 257.8-23.25 259.87-22.1 261-20.1 262.12-18.1 262.07-15.65L262.07-15.65 259.22-12.85ZM250.62-21.35L250.62-21.35Q247.77-19.85 246.77-15.75L246.77-15.75 257.72-16.25Q257.22-18.65 255.25-20.1 253.27-21.55 250.62-21.35Z" opacity="1" transform="matrix(1,0,0,1,0,0)" fill="#0c0c0c" class="undefined-text-1" data-fill-palette-color="secondary" id="text-1"></path></svg></g></svg></g></svg></g></svg></g><g><svg viewBox="0 0 245.65351679999995 242.134248908522" height="242.134248908522" width="245.65351679999995"><g><svg xmlns="http://www.w3.org/2000/svg" data-name="Layer 1" viewBox="1.0477466583251953 1.7128515243530273 97.95040130615234 96.54714965820312" x="0" y="0" height="242.134248908522" width="245.65351679999995" class="icon-icon-0" data-fill-palette-color="accent" id="icon-0"><path d="M57.92 22.62a2.13 2.13 0 0 0-2.06 2.19c0.22 7.78 0.51 13.49 0.86 17.62 0 0.38 0.68 0.67 1.44 0.65s1.21-0.3 1.24-0.65c0.32-3.72 0.58-8.73 0.79-15.36 2.37 0.07 5 0.14 8 0.19a2.44 2.44 0 0 0 1.9-4L70 23.18C64.59 16.84 58.37 9.74 52 2.63l-0.22-0.22a2.75 2.75 0 0 0-3.88 0.22c-6.25 7-12.5 14.09-18 20.51l-0.08 0.09a2.47 2.47 0 0 0 1.94 4.08l7.94-0.2c0.21 6.2 0.48 11.44 0.8 15.3 0 0.39 0.7 0.69 1.47 0.66s1.25-0.31 1.28-0.66c0.36-4.33 0.66-10.4 0.88-17.6h0A2.18 2.18 0 0 0 42 22.57h-0.12l-4.52-0.11C41.44 18 45.72 13.33 50 8.58c4.33 4.81 8.62 9.52 12.67 13.9l-4.59 0.14Z" fill="#050505" data-fill-palette-color="accent"></path><path d="M98.59 70.75L86 50.17a2.64 2.64 0 0 0-2.23-1.26h0c-22.23-0.11-45.94-0.11-67.49 0h0A2.6 2.6 0 0 0 14 50.18L1.4 70.78l0 0a2.43 2.43 0 0 0 2.1 3.69l12-0.14c-0.2 2.47-0.38 5.44-0.53 8.81l-0.24 6c0 0.56-0.06 1 0 1.85a7.78 7.78 0 0 0 0.57 2.3A7.64 7.64 0 0 0 18.53 97a7.75 7.75 0 0 0 2.4 0.87 8.42 8.42 0 0 0 1.29 0.13l0.89 0 3.64 0.07 7.54 0.11c5.12 0.06 10.41 0.08 15.7 0.08s10.58 0 15.7-0.09l7.54-0.11L76.86 98l0.9 0A8.3 8.3 0 0 0 79 97.85 7.73 7.73 0 0 0 81.43 97a7.62 7.62 0 0 0 3.2-3.63A7.81 7.81 0 0 0 85.19 91c0-0.88 0-1.27 0-1.84l-0.24-6c-0.15-3.33-0.33-6.28-0.53-8.74l12.07 0.13a2.48 2.48 0 0 0 2.14-3.78ZM7.88 69.67l9.79-15.45c9.34 0.06 19.06 0.09 28.89 0.1-2.61 3.88-5.81 8.73-10.38 15.81C28.22 69.95 19 69.8 7.88 69.67Zm26.4 23.2L26.74 93 23.11 93l-0.89 0a3.7 3.7 0 0 1-0.47 0 2.83 2.83 0 0 1-2.2-1.56 3.3 3.3 0 0 1-0.29-0.88c0-0.21-0.05-0.87-0.07-1.38l-0.24-6c-0.15-3.39-0.33-6.37-0.53-8.85 7-0.1 13.23-0.22 18.8-0.35h0.09a1.86 1.86 0 0 0 1.54-0.9c4-6.67 6.85-11.49 9.12-15.41-1.09 9.63-1 27.09 0.37 35.11C43.59 92.79 38.87 92.82 34.28 92.87ZM81 83.17l-0.24 6c0 0.5 0 1.18-0.07 1.39a3.37 3.37 0 0 1-0.29 0.88 2.86 2.86 0 0 1-2.21 1.57 3.62 3.62 0 0 1-0.47 0l-0.89 0L73.22 93l-7.54-0.11c-4.59-0.05-9.32-0.08-14.06-0.09 1.33-8 1.46-25.38 0.37-35 2.57 4.44 5.6 9.61 9 15.37a1.94 1.94 0 0 0 1.63 0.95h0.08c5.77 0.12 12.11 0.22 18.83 0.31C81.36 76.85 81.18 79.82 81 83.17ZM63.81 70c-3.93-6-7.42-11.32-10.38-15.71 9.68 0 19.37 0 28.83-0.07L92 69.62C81.76 69.73 72.23 69.87 63.81 70Z" fill="#050505" data-fill-palette-color="accent"></path><path d="M89.27 25.59a10.47 10.47 0 0 0 0-1.44 8.57 8.57 0 0 0 0-1.24c-1.69-1.87-6.81-1.88-8.5 0a10.68 10.68 0 0 0-0.05 1.47 8.85 8.85 0 0 0 0.05 1.28C82.47 27.47 87.58 27.46 89.27 25.59Z" fill="#050505" data-fill-palette-color="accent"></path><path d="M80.9 42.73a10.7 10.7 0 0 0 1.05-1 8.75 8.75 0 0 0 0.84-0.91c0.15-2.5-3.39-6-5.87-5.92a10.89 10.89 0 0 0-1.07 1 9 9 0 0 0-0.87 0.94C74.85 39.34 78.4 42.88 80.9 42.73Z" fill="#050505" data-fill-palette-color="accent"></path><path d="M76.92 13.59c2.48 0.13 6-3.42 5.87-5.92a10.7 10.7 0 0 0-1-1.05 8.76 8.76 0 0 0-0.91-0.84c-2.5-0.15-6 3.39-5.92 5.87a10.9 10.9 0 0 0 1 1.07A9 9 0 0 0 76.92 13.59Z" fill="#050505" data-fill-palette-color="accent"></path><path d="M11.67 22.92a11.85 11.85 0 0 0 0 1.44 9.69 9.69 0 0 0 0 1.24c1.5 1.87 6 1.88 7.51 0a12.08 12.08 0 0 0 0-1.47 10 10 0 0 0 0-1.28C17.68 21 13.17 21 11.67 22.92Z" fill="#050505" data-fill-palette-color="accent"></path><path d="M23 13.59a10.89 10.89 0 0 0 1.07-1 9 9 0 0 0 0.87-0.94c0.13-2.48-3.42-6-5.92-5.87a10.69 10.69 0 0 0-1.05 1 8.75 8.75 0 0 0-0.84 0.91C17 10.17 20.55 13.72 23 13.59Z" fill="#050505" data-fill-palette-color="accent"></path><path d="M19.05 42.73c2.5 0.15 6-3.39 5.92-5.87a10.91 10.91 0 0 0-1-1.07 9 9 0 0 0-0.94-0.87c-2.48-0.13-6 3.42-5.87 5.92a10.69 10.69 0 0 0 1 1.05A8.75 8.75 0 0 0 19.05 42.73Z" fill="#050505" data-fill-palette-color="accent"></path></svg></g></svg></g></svg></g><defs></defs></svg><rect width="395.52" height="141.90780594735492" fill="none" stroke="none" visibility="hidden"></rect></g></svg></g></svg>